<?xml version="1.0" encoding="utf-8"?><svg xmlns="http://www.w3.org/2000/svg" xmlns:xlink="http://www.w3.org/1999/xlink"><style>:root>svg{display:none}:root>svg:target{display:block}</style><svg viewBox="0 0 20 21" fill="none" id="after-service" xmlns="http://www.w3.org/2000/svg"><path d="M18.125.063H1.875A1.625 1.625 0 0 0 .25 1.688v5.97c0 9.1 7.7 12.12 9.242 12.633.33.112.686.112 1.016 0 1.544-.513 9.242-3.533 9.242-12.634v-5.97A1.625 1.625 0 0 0 18.125.063Zm0 7.595c0 7.965-6.739 10.626-8.125 11.089-1.374-.458-8.125-3.117-8.125-11.089v-5.97h16.25v5.97Zm-12.762 2.73a.813.813 0 1 1 1.15-1.15L8.374 11.1l5.113-5.112a.812.812 0 1 1 1.15 1.15L8.95 12.824a.812.812 0 0 1-1.15 0l-2.437-2.438Z" fill="#A3894E"/></svg><svg viewBox="0 0 9 14" fill="none" id="arrow-next" xmlns="http://www.w3.org/2000/svg"><path d="m8.193 7.443-6.25 6.25a.625.625 0 1 1-.885-.885L6.867 7 1.058 1.193a.625.625 0 1 1 .885-.885l6.25 6.25a.625.625 0 0 1 0 .885Z" fill="#A37E2C"/></svg><svg viewBox="0 0 58 5" fill="none" id="arrow-next-long" xmlns="http://www.w3.org/2000/svg"><path d="M49.5 1 57 4.5h-7.5V1Z" fill="#fff" stroke="#fff" stroke-linecap="round" stroke-linejoin="round"/><path d="M57 4.5H1" stroke="#fff" stroke-linecap="round"/></svg><svg viewBox="0 0 9 14" fill="none" id="arrow-prev" xmlns="http://www.w3.org/2000/svg"><path d="m.807 6.557 6.25-6.25a.625.625 0 1 1 .885.885L2.133 7l5.809 5.807a.625.625 0 1 1-.885.885l-6.25-6.25a.625.625 0 0 1 0-.885Z" fill="#A37E2C"/></svg><svg viewBox="0 0 58 5" fill="none" id="arrow-prev-long" xmlns="http://www.w3.org/2000/svg"><path d="M8.5 4.5 1 1h7.5v3.5Z" fill="#fff" stroke="#fff" stroke-linecap="round" stroke-linejoin="round"/><path d="M1 1h56" stroke="#fff" stroke-linecap="round"/></svg><svg viewBox="0 0 7 12" fill="none" id="arrow-right" xmlns="http://www.w3.org/2000/svg"><path d="m6.354 6.354-5 5a.5.5 0 1 1-.707-.707L5.293 6 .647 1.354a.5.5 0 0 1 .707-.707l5 5a.5.5 0 0 1 0 .707Z" fill="#fff"/></svg><svg viewBox="0 0 18 16" fill="none" id="arrow-right-serif" xmlns="http://www.w3.org/2000/svg"><path d="m17.78 8.531-6.75 6.75a.75.75 0 1 1-1.06-1.061l5.47-5.47H.75a.75.75 0 0 1 0-1.5h14.69L9.97 1.781A.75.75 0 0 1 11.03.72l6.75 6.75a.748.748 0 0 1 0 1.061Z" fill="#fff"/></svg><svg viewBox="0 0 14 9" fill="none" id="arrow-up" xmlns="http://www.w3.org/2000/svg"><path d="M13.692 7.942a.624.624 0 0 1-.884 0L7 2.134 1.192 7.942a.625.625 0 0 1-.884-.884l6.25-6.25a.625.625 0 0 1 .884 0l6.25 6.25a.623.623 0 0 1 0 .884Z" fill="#000"/></svg><svg viewBox="0 0 16 18" fill="none" id="arrow-up-top" xmlns="http://www.w3.org/2000/svg"><path d="M15.28 8.03a.75.75 0 0 1-1.06 0L8.75 2.56v14.69a.75.75 0 1 1-1.5 0V2.56L1.78 8.03A.75.75 0 0 1 .72 6.97L7.47.219a.75.75 0 0 1 1.06 0l6.75 6.75a.751.751 0 0 1 0 1.061Z" fill="#A37E2C"/></svg><svg viewBox="0 0 14 14" fill="none" id="close" xmlns="http://www.w3.org/2000/svg"><path d="M13.067 12.183a.624.624 0 1 1-.884.885L7 7.884l-5.183 5.184a.625.625 0 1 1-.884-.885L6.116 7 .933 1.818a.625.625 0 1 1 .884-.885L7 6.117 12.183.933a.625.625 0 1 1 .884.885L7.883 7l5.184 5.183Z" fill="#8D6C20"/></svg><svg viewBox="0 0 16 14" fill="none" id="contact-us" xmlns="http://www.w3.org/2000/svg"><path d="M14.188.375H1.813A1.125 1.125 0 0 0 .688 1.5v11.25a1.114 1.114 0 0 0 .65 1.02 1.117 1.117 0 0 0 1.205-.168L4.8 11.624h9.387a1.125 1.125 0 0 0 1.124-1.125v-9A1.125 1.125 0 0 0 14.188.375Zm0 10.125H4.8c-.265 0-.522.093-.724.264l-.009.007-2.255 1.979V1.5h12.375v9Zm-9-5.625a.563.563 0 0 1 .562-.563h4.5a.563.563 0 1 1 0 1.125h-4.5a.563.563 0 0 1-.562-.562Zm0 2.25a.563.563 0 0 1 .562-.563h4.5a.563.563 0 1 1 0 1.125h-4.5a.563.563 0 0 1-.562-.562Z" fill="#fff"/></svg><svg viewBox="0 0 20 20" fill="none" id="facebook" xmlns="http://www.w3.org/2000/svg"><path d="M18.9 0H1.1A1.1 1.1 0 0 0 0 1.1v17.8A1.1 1.1 0 0 0 1.1 20h9.58v-7.75h-2.6v-3h2.6V7a3.64 3.64 0 0 1 3.88-4 20.26 20.26 0 0 1 2.33.12v2.7H15.3c-1.26 0-1.5.6-1.5 1.47v1.93h3l-.39 3H13.8V20h5.1a1.102 1.102 0 0 0 1.1-1.1V1.1A1.101 1.101 0 0 0 18.9 0Z" fill="#fff"/></svg><svg viewBox="0 0 22 21" fill="none" id="gift" xmlns="http://www.w3.org/2000/svg"><path d="M19.938 6.313h-3.563c.04-.034.08-.066.119-.102A2.997 2.997 0 0 0 17.5 4.035a3.315 3.315 0 0 0-3.408-3.41 3 3 0 0 0-2.178 1.007c-.38.44-.688.936-.914 1.47a5.579 5.579 0 0 0-.914-1.47A2.999 2.999 0 0 0 7.908.625 3.313 3.313 0 0 0 4.5 4.035 3 3 0 0 0 5.506 6.21c.04.034.08.066.12.102H2.061A1.625 1.625 0 0 0 .438 7.938v3.25a1.625 1.625 0 0 0 1.625 1.625v6.5a1.625 1.625 0 0 0 1.624 1.625h14.626a1.625 1.625 0 0 0 1.625-1.625v-6.5a1.625 1.625 0 0 0 1.625-1.625v-3.25a1.625 1.625 0 0 0-1.625-1.625Zm-6.805-3.605a1.39 1.39 0 0 1 1.015-.457h.05a1.688 1.688 0 0 1 1.677 1.734 1.39 1.39 0 0 1-.457 1.016c-.964.853-2.563 1.153-3.555 1.26.122-1.076.457-2.64 1.27-3.553Zm-6.51.037A1.689 1.689 0 0 1 7.81 2.25h.05a1.39 1.39 0 0 1 1.015.457c.852.963 1.153 2.56 1.259 3.547-.988-.102-2.584-.406-3.547-1.258A1.39 1.39 0 0 1 6.13 3.98a1.686 1.686 0 0 1 .49-1.235h.004Zm-4.56 5.193h8.124v3.25H2.063v-3.25Zm1.624 4.875h6.5v6.5h-6.5v-6.5Zm14.626 6.5h-6.5v-6.5h6.5v6.5Zm1.625-8.125h-8.125v-3.25h8.124v3.25Z" fill="#A3894E"/></svg><svg viewBox="0 0 24 24" id="globle" xmlns="http://www.w3.org/2000/svg"><path d="M10.84.965c-4.394.447-8.172 3.567-9.458 7.81-.707 2.334-.606 4.992.277 7.248a11.123 11.123 0 0 0 9.238 7.014c.56.055 1.646.055 2.206 0a11.125 11.125 0 0 0 9.238-7.014c.993-2.539.99-5.554-.007-8.063-1.552-3.901-5.097-6.588-9.231-6.997-.504-.05-1.765-.048-2.263.002M9.394 2.69c-.902 1.024-1.477 1.88-2.093 3.116l-.371.745-.295-.129c-.567-.248-1.781-.9-1.951-1.046-.025-.022.239-.3.637-.673C6.383 3.71 7.732 2.943 9.2 2.497c.474-.144.483-.135.194.193M11.4 4.966v2.565l-.41-.027c-.773-.052-1.937-.258-2.637-.466-.15-.045-.273-.09-.273-.102 0-.058.418-.893.639-1.276a12.33 12.33 0 0 1 2.027-2.649c.333-.336.616-.611.63-.611.013 0 .024 1.155.024 2.566m2.104-1.706a13.39 13.39 0 0 1 1.851 2.527c.185.327.565 1.101.565 1.151 0 .01-.123.055-.273.1-.7.208-1.864.414-2.637.466l-.41.027V2.392l.243.211c.134.116.432.412.661.657m1.576-.671c1.154.39 2.184.945 3.079 1.661.321.257 1.161 1.059 1.161 1.108-.001.068-1.32.786-1.956 1.064l-.297.13-.369-.746a13.403 13.403 0 0 0-2.096-3.122l-.262-.296.16.029c.087.017.348.094.58.172M4.074 6.394c.44.308 1.536.894 2.195 1.173l.249.106-.061.194c-.297.948-.52 2.127-.6 3.183l-.026.35H2.12v-.119c0-.212.122-1.01.225-1.474.245-1.103.806-2.411 1.423-3.317.131-.192.157-.2.306-.096m16.221.196a10.091 10.091 0 0 1 1.523 4.121c.034.249.062.505.062.57v.119h-3.713l-.026-.35c-.077-1.039-.326-2.371-.58-3.108-.045-.13-.068-.251-.051-.267.016-.017.174-.092.35-.167.628-.268 1.948-.986 2.118-1.151.081-.078.15-.028.317.233M8.22 8.237c.825.225 1.867.398 2.81.467l.37.026v2.67H7.04v-.15c0-.243.115-1.155.202-1.61.094-.487.163-.77.302-1.232.081-.27.112-.328.168-.312.037.011.266.075.508.141m8.236.173c.253.844.419 1.737.486 2.62l.028.37H12.6V8.73l.37-.026c.966-.07 2.128-.269 2.93-.502.22-.063.413-.117.429-.119.016-.002.073.146.127.327M5.858 13.03c.065 1.005.271 2.108.603 3.233.022.073-.014.1-.288.214a16.33 16.33 0 0 0-1.827.955c-.217.136-.411.248-.431.248-.047 0-.325-.431-.606-.94a10.254 10.254 0 0 1-.964-2.542c-.097-.434-.225-1.288-.225-1.5V12.6h3.71l.028.43m5.542.905v1.334l-.39.028c-.986.072-2.099.263-2.951.507-.235.067-.434.115-.443.106-.038-.038-.223-.717-.316-1.16a12.11 12.11 0 0 1-.244-1.726l-.028-.424H11.4v1.335m5.544-.905a12.78 12.78 0 0 1-.471 2.6c-.046.16-.096.29-.109.29-.013 0-.209-.054-.434-.119-.832-.24-1.958-.433-2.94-.504l-.39-.028V12.6h4.372l-.028.43m4.936-.332c0 .212-.128 1.066-.225 1.5-.186.83-.551 1.794-.964 2.542-.281.509-.559.94-.606.94-.02 0-.241-.127-.491-.282a16.135 16.135 0 0 0-1.804-.938 2.484 2.484 0 0 1-.27-.122c0-.005.064-.241.141-.524a14.41 14.41 0 0 0 .483-2.824l.027-.39h3.709v.098M11.4 19.104v2.624l-.39-.368a12.413 12.413 0 0 1-2.046-2.5c-.224-.356-.924-1.706-.924-1.781 0-.043.818-.261 1.42-.379.598-.116 1.327-.209 1.69-.216l.25-.004v2.624m2.12-2.561c.869.101 2.44.446 2.44.536 0 .074-.7 1.424-.924 1.781-.582.931-1.138 1.61-2.016 2.463l-.42.409V16.48h.19c.105 0 .433.028.73.063m-6.253 1.688c.583 1.192 1.402 2.423 2.087 3.138.1.104.172.198.162.209-.03.029-1.131-.349-1.539-.53a10.139 10.139 0 0 1-2.136-1.297c-.327-.262-1.161-1.058-1.161-1.107.001-.077 2.042-1.165 2.18-1.162.022.001.205.338.407.749m10.53-.449c.591.287 1.522.813 1.523.86 0 .049-.841.853-1.161 1.108-.63.504-1.406.976-2.136 1.298-.397.176-1.509.56-1.537.531-.01-.01.061-.104.159-.208.456-.493 1.064-1.318 1.494-2.031.268-.444.75-1.376.873-1.69.037-.094.09-.17.118-.169.027 0 .328.136.667.301" fill-rule="evenodd"/></svg><svg viewBox="0 0 24 24" fill="none" id="instagram" xmlns="http://www.w3.org/2000/svg"><path d="M12 16a4 4 0 1 0 0-8 4 4 0 0 0 0 8Z" stroke="#fff" stroke-width="1.5" stroke-linecap="round" stroke-linejoin="round"/><path d="M3 16V8a5 5 0 0 1 5-5h8a5 5 0 0 1 5 5v8a5 5 0 0 1-5 5H8a5 5 0 0 1-5-5Z" stroke="#fff" stroke-width="1.5"/><path d="m17.5 6.51.01-.011" stroke="#fff" stroke-width="1.5" stroke-linecap="round" stroke-linejoin="round"/></svg><svg viewBox="0 0 26 21" fill="none" id="jewelry" xmlns="http://www.w3.org/2000/svg"><path d="m24.985 7.027-5.688-6.5a.812.812 0 0 0-.61-.277H7.314a.812.812 0 0 0-.61.277l-5.687 6.5a.812.812 0 0 0 .017 1.09l11.375 12.188a.814.814 0 0 0 1.188 0L24.971 8.117a.813.813 0 0 0 .014-1.09Zm-2.4-.277H18.28l-3.656-4.875h3.694l4.266 4.875ZM7.575 8.375l3.06 7.65-7.14-7.65h4.08Zm9.1 0L13 17.562 9.326 8.375h7.349ZM9.75 6.75 13 2.416l3.25 4.334h-6.5Zm8.676 1.625h4.08l-7.14 7.65 3.06-7.65ZM7.68 1.875h3.694L7.72 6.75H3.416L7.68 1.875Z" fill="#A3894E"/></svg><svg viewBox="0 0 18 18" fill="none" id="link" xmlns="http://www.w3.org/2000/svg"><path d="M11.942 6.058a.626.626 0 0 1 0 .884l-5 5a.626.626 0 0 1-.884-.884l5-5a.625.625 0 0 1 .884 0Zm3.902-3.902a4.376 4.376 0 0 0-6.188 0L7.308 4.504a.625.625 0 0 0 .884.884l2.349-2.344a3.125 3.125 0 0 1 4.42 4.42l-2.35 2.348a.625.625 0 1 0 .884.884l2.349-2.352a4.375 4.375 0 0 0 0-6.188ZM9.808 12.611 7.46 14.959a3.126 3.126 0 1 1-4.42-4.42l2.348-2.347a.625.625 0 1 0-.884-.884L2.156 9.656a4.375 4.375 0 1 0 6.188 6.188l2.348-2.35a.625.625 0 1 0-.884-.883Z" fill="#000"/></svg><svg viewBox="0 0 20 20" fill="none" id="locale-cn" xmlns="http://www.w3.org/2000/svg"><path d="M10 19.375a9.375 9.375 0 1 0 0-18.75 9.375 9.375 0 1 0 0 18.75Z" fill="#E30D0D"/><path d="m6.875 8.875 2.5 1.75-.938-2.875 2.5-1.813H7.845l-.969-2.812-.938 2.813H2.813l2.5 1.812-.937 2.875 2.5-1.75Zm4.156 2.156-.719.156.688.282v.719l.469-.532.687.25-.406-.594.438-.562-.72.156-.437-.594v.72Zm1.063-2.125-.531.469.718-.063.313.688.125-.719.719-.062-.626-.375.157-.719-.531.469-.626-.375.282.687Zm.187-2.437.219.718.219-.687h.719l-.563-.438.219-.718-.594.437-.563-.468.22.718-.595.407.72.03Zm-1.25-2.5v.719l.438-.594.719.156-.438-.563.406-.593-.687.281L11 2.812v.72l-.688.28.72.157Z" fill="#FFE62E"/></svg><svg viewBox="0 0 20 20" fill="none" id="locale-hk" xmlns="http://www.w3.org/2000/svg"><path d="M0 0h20v20H0V0Z" fill="#D80027"/><path d="M11.031 7.566c-.226.946-.629.766-.828 1.59a2.176 2.176 0 0 1 1.016-4.23c-.395 1.648.015 1.797-.188 2.64Zm-3.023.7c.828.507.53.836 1.253 1.28a2.176 2.176 0 0 1-3.707-2.273c1.446.887 1.711.54 2.454.993Zm-.274 3.097c.742-.633.965-.25 1.61-.797a2.176 2.176 0 0 1-3.31 2.82c1.29-1.1 1.04-1.46 1.704-2.023h-.004Zm2.867 1.211c-.375-.898.059-.988-.265-1.77A2.176 2.176 0 0 1 12 14.82c-.649-1.562-1.067-1.441-1.399-2.242v-.004Zm2.04-2.344c-.973.079-.926-.363-1.77-.296a2.176 2.176 0 0 1 4.336-.34c-1.692.133-1.703.566-2.567.636Z" fill="#EEE"/></svg><svg viewBox="0 0 20 20" fill="none" id="locale-my" xmlns="http://www.w3.org/2000/svg"><path d="M17.5 4.375H10V6.25h8.594A8.657 8.657 0 0 0 17.5 4.375Z" fill="#E30D0D"/><path d="M19.188 11.875A9.084 9.084 0 0 0 19.375 10H.625c0 .656.063 1.281.188 1.875h18.375Z" fill="#F9F9F9"/><path d="M10 .625V2.5h5.625A9.225 9.225 0 0 0 10 .625Z" fill="#E30D0D"/><path d="M10 4.375h7.5A8.89 8.89 0 0 0 15.625 2.5H10v1.875Zm8.594 1.875H10v1.875h9.188a9.366 9.366 0 0 0-.594-1.875Z" fill="#F9F9F9"/><path d="M10 8.125V10h9.375c0-.656-.063-1.281-.188-1.875H10ZM1.406 13.75h17.188c.25-.594.468-1.219.593-1.875H.813c.125.656.344 1.281.594 1.875Z" fill="#E30D0D"/><path d="M2.5 15.625h15a8.658 8.658 0 0 0 1.094-1.875H1.406A8.656 8.656 0 0 0 2.5 15.625Z" fill="#F9F9F9"/><path d="M2.5 15.625A8.886 8.886 0 0 0 4.375 17.5h11.25a8.884 8.884 0 0 0 1.875-1.875h-15Z" fill="#E30D0D"/><path d="M4.375 17.5A9.225 9.225 0 0 0 10 19.375a9.225 9.225 0 0 0 5.625-1.875H4.375Z" fill="#F9F9F9"/><path d="M10 .625A9.362 9.362 0 0 0 .625 10H10V.625Z" fill="#2A5F9E"/><path d="M6.219 8C5.28 8 4.5 7.219 4.5 6.25S5.281 4.5 6.219 4.5c.375 0 .687.125.968.313a2.112 2.112 0 0 0-1.625-.75c-1.187 0-2.125.968-2.125 2.187 0 1.219.97 2.188 2.126 2.188.656 0 1.218-.282 1.625-.75a1.785 1.785 0 0 1-.97.312Zm1.906-2.125.219-.563-.063.594.438-.406-.313.531.563-.187-.5.312.594.094-.594.094.5.312-.563-.187L8.72 7l-.438-.406.063.593-.219-.562-.219.563.063-.594L7.53 7l.313-.531-.563.187.5-.312-.593-.094.593-.094-.5-.312.563.187L7.53 5.5l.438.406-.063-.593.219.562Z" fill="#FFE62E"/></svg><svg viewBox="0 0 20 20" fill="none" id="locale-sg" xmlns="http://www.w3.org/2000/svg"><path d="M10 19.375A9.362 9.362 0 0 0 19.375 10H.625A9.362 9.362 0 0 0 10 19.375Z" fill="#F9F9F9"/><path d="M10 .625A9.362 9.362 0 0 0 .625 10h18.75A9.362 9.362 0 0 0 10 .625Z" fill="#E6143A"/><path d="m6.625 5.469-.375-.313h.469l.156-.468.156.468H7.5l-.375.313.125.468-.375-.28-.375.28.125-.468Zm2.5 0-.375-.313h.469l.156-.468.156.468H10l-.375.313.125.468-.375-.28-.375.28.125-.468ZM6.937 7.03l-.375-.312h.47l.155-.469.157.469h.468l-.375.312.125.469-.375-.281-.375.281.125-.469Zm1.875 0-.374-.312h.468l.156-.469.157.469h.469l-.376.312.126.469-.376-.281-.374.281.124-.469Zm-.937-2.5L7.5 4.22h.469l.156-.469.156.469h.469l-.375.312L8.5 5l-.375-.281L7.75 5l.125-.469Z" fill="#F9F9F9"/><path d="M7.625 8.75c-1.5 0-2.688-1.281-2.688-2.844 0-1.562 1.22-2.843 2.688-2.843.125 0 .219 0 .313.03a2.687 2.687 0 0 0-1.22-.28c-1.624 0-2.968 1.406-2.968 3.124 0 1.72 1.344 3.125 2.969 3.125.5 0 1-.124 1.406-.374-.156.03-.313.062-.5.062Z" fill="#F9F9F9"/></svg><svg viewBox="0 0 14 16" fill="none" id="location" xmlns="http://www.w3.org/2000/svg"><path d="M7 3.5a2.812 2.812 0 1 0 0 5.625A2.812 2.812 0 0 0 7 3.5ZM7 8a1.687 1.687 0 1 1 0-3.375A1.687 1.687 0 0 1 7 8ZM7 .125A6.195 6.195 0 0 0 .812 6.313c0 2.207 1.02 4.547 2.954 6.767a17.87 17.87 0 0 0 2.914 2.693.562.562 0 0 0 .646 0 17.874 17.874 0 0 0 2.908-2.693c1.93-2.22 2.954-4.56 2.954-6.768A6.195 6.195 0 0 0 7 .125Zm0 14.484c-1.162-.914-5.063-4.271-5.063-8.296a5.063 5.063 0 0 1 10.126 0c0 4.023-3.9 7.382-5.063 8.296Z" fill="#332306"/></svg><svg viewBox="0 0 14 16" fill="none" id="location-solid" xmlns="http://www.w3.org/2000/svg"><path d="M7 .125A6.195 6.195 0 0 0 .812 6.313c0 5.294 5.625 9.293 5.865 9.46a.562.562 0 0 0 .646 0c.24-.167 5.864-4.166 5.864-9.46A6.195 6.195 0 0 0 7 .125Zm0 3.938a2.25 2.25 0 1 1 0 4.5 2.25 2.25 0 0 1 0-4.5Z" fill="#fff"/></svg><svg viewBox="0 0 16 3" fill="none" id="minus" xmlns="http://www.w3.org/2000/svg"><path d="M15.5 1.5a.625.625 0 0 1-.625.625H1.125a.625.625 0 0 1 0-1.25h13.75a.625.625 0 0 1 .625.625Z" fill="#8D6C20"/></svg><svg viewBox="0 0 16 15" fill="none" id="plus" xmlns="http://www.w3.org/2000/svg"><path d="M15.5 7.5a.625.625 0 0 1-.625.625h-6.25v6.25a.625.625 0 1 1-1.25 0v-6.25h-6.25a.625.625 0 0 1 0-1.25h6.25V.625a.625.625 0 0 1 1.25 0v6.25h6.25a.625.625 0 0 1 .625.625Z" fill="#8D6C20"/></svg><svg viewBox="0 0 22 22" fill="none" id="search" xmlns="http://www.w3.org/2000/svg"><path d="m21.325 20.175-5.085-5.084a8.948 8.948 0 1 0-1.15 1.149l5.085 5.085a.814.814 0 0 0 1.388-.575.814.814 0 0 0-.238-.575ZM2.062 9.375a7.312 7.312 0 1 1 7.313 7.313 7.32 7.32 0 0 1-7.313-7.313Z" fill="#A3894E"/></svg><svg viewBox="0 0 19 22" fill="none" id="share" xmlns="http://www.w3.org/2000/svg"><path d="M14.5 14a3.739 3.739 0 0 0-2.683 1.133l-4.322-2.777c.34-.872.34-1.84 0-2.712l4.322-2.777a3.75 3.75 0 1 0-.812-1.261L6.683 8.384a3.75 3.75 0 1 0 0 5.233l4.322 2.777A3.75 3.75 0 1 0 14.5 14Zm0-12a2.25 2.25 0 1 1 0 4.5 2.25 2.25 0 0 1 0-4.5ZM4 13.25a2.25 2.25 0 1 1 0-4.5 2.25 2.25 0 0 1 0 4.5ZM14.5 20a2.25 2.25 0 1 1 0-4.5 2.25 2.25 0 0 1 0 4.5Z" fill="#8D6C20"/></svg><svg viewBox="0 0 18 18" fill="none" id="tel" xmlns="http://www.w3.org/2000/svg"><path d="M16.61 11.617 12.56 9.803l-.01-.005a1.375 1.375 0 0 0-1.369.169L9.09 11.75c-1.325-.644-2.693-2.002-3.337-3.31L7.54 6.317a1.375 1.375 0 0 0 .162-1.36v-.01L5.883.89A1.375 1.375 0 0 0 4.454.073 4.835 4.835 0 0 0 .25 4.875c0 6.823 5.552 12.375 12.375 12.375a4.835 4.835 0 0 0 4.802-4.204 1.375 1.375 0 0 0-.817-1.428Zm-3.985 4.258a11.012 11.012 0 0 1-11-11 3.455 3.455 0 0 1 2.997-3.438v.01l1.804 4.04L4.65 7.613a1.375 1.375 0 0 0-.135 1.415c.779 1.593 2.383 3.185 3.993 3.963a1.375 1.375 0 0 0 1.417-.146l2.089-1.783 4.04 1.81h.009a3.455 3.455 0 0 1-3.438 3.003Z" fill="#8D6C20"/></svg><svg viewBox="0 0 19 18" fill="none" id="time" xmlns="http://www.w3.org/2000/svg"><path d="M9.5.063A8.938 8.938 0 1 0 18.438 9 8.947 8.947 0 0 0 9.5.062Zm0 16.5A7.562 7.562 0 1 1 17.063 9 7.572 7.572 0 0 1 9.5 16.563ZM15 9a.687.687 0 0 1-.688.688H9.5A.687.687 0 0 1 8.812 9V4.187a.688.688 0 0 1 1.376 0v4.125h4.124A.687.687 0 0 1 15 9Z" fill="#8D6C20"/></svg><svg viewBox="0 0 24 24" fill="none" id="wechat" xmlns="http://www.w3.org/2000/svg"><path d="M16.764 21.643c-3.998 0-7.24-2.7-7.24-6.027 0-3.33 3.24-6.03 7.237-6.03S24 12.286 24 15.616c0 1.815-.975 3.452-2.5 4.554a.486.486 0 0 0-.18.55l.328 1.214c.02.057.035.116.043.176a.249.249 0 0 1-.243.243.265.265 0 0 1-.138-.045l-1.585-.915a.779.779 0 0 0-.384-.111.765.765 0 0 0-.213.031 8.503 8.503 0 0 1-2.364.33Zm-3.168-7.33a.971.971 0 1 0 .835-1.5.968.968 0 0 0-.969.97c-.01.187.037.371.134.53Zm4.848.001a.97.97 0 1 0 .819-1.5.967.967 0 0 0-.966.966.94.94 0 0 0 .147.534Z" fill="#fff"/><path d="M0 10.239c0 2.182 1.171 4.147 3.002 5.484a.577.577 0 0 1 .214.658l-.242.9-.15.56a.749.749 0 0 0-.047.21.288.288 0 0 0 .289.29.34.34 0 0 0 .167-.044l1.901-1.1c.14-.083.3-.129.462-.131.088 0 .175.013.257.037.794.228 1.612.359 2.438.39a6.675 6.675 0 0 1-.266-1.876c0-4.405 4.178-7.53 8.736-7.53.075 0 .15 0 .225.002C15.88 5.143 12.588 3 8.694 3 3.894 3 0 6.24 0 10.239Zm6.948-2.333a1.155 1.155 0 1 1-2.31 0 1.155 1.155 0 0 1 2.31 0Zm5.813 0a1.155 1.155 0 1 1-2.31 0 1.155 1.155 0 0 1 2.31 0Z" fill="#fff"/></svg><svg viewBox="0 0 24 24" fill="none" id="weibo" xmlns="http://www.w3.org/2000/svg"><path d="M4.278 8.592c2.773-2.77 6.004-4.033 7.219-2.816.537.537.588 1.464.244 2.572-.178.557.524.25.524.25 2.241-.938 4.197-.994 4.91.027.38.542.343 1.306-.008 2.19-.163.407.048.47.36.563 1.262.392 2.668 1.336 2.668 3.004 0 2.763-3.98 6.24-9.964 6.24-4.565 0-9.23-2.214-9.23-5.853 0-1.902 1.204-4.102 3.277-6.177Zm12.133 5.742c-.237-2.39-3.382-4.039-7.023-3.677-3.64.36-6.403 2.59-6.167 4.98.237 2.394 3.382 4.04 7.023 3.68 3.641-.362 6.401-2.592 6.167-4.983Zm-10.249.104c.754-1.528 2.712-2.39 4.446-1.94 1.792.463 2.707 2.154 1.976 3.8-.744 1.682-2.883 2.58-4.695 1.993-1.752-.566-2.493-2.295-1.727-3.853Zm2.715.578c-.563-.237-1.291.008-1.64.553-.354.547-.189 1.201.371 1.456.568.257 1.325.013 1.676-.55.346-.568.164-1.217-.407-1.459Zm1.387-.578c-.216-.084-.486.018-.613.232-.123.214-.054.458.163.547.219.092.501-.012.628-.23.123-.22.044-.467-.178-.549Zm5.694-11.514a5.83 5.83 0 0 1 6.762 7.5.838.838 0 0 1-1.06.54.844.844 0 0 1-.542-1.062 4.143 4.143 0 0 0-4.808-5.327.845.845 0 0 1-.353-1.65h.001Zm.626 2.926a2.836 2.836 0 0 1 3.29 3.648.727.727 0 0 1-1.169.339.725.725 0 0 1-.209-.789 1.379 1.379 0 0 0-.891-1.746 1.395 1.395 0 0 0-.718-.037.723.723 0 1 1-.303-1.415Z" fill="#fff"/></svg><svg viewBox="0 0 16.5 16.5" id="whatsapp" xmlns="http://www.w3.org/2000/svg"><path d="M16.5 8.038a8.115 8.115 0 0 1-12.015 7.038L0 16.5l1.462-4.313A7.956 7.956 0 0 1 .3 8.037a8.1 8.1 0 0 1 16.2 0ZM8.4 1.282a6.791 6.791 0 0 0-6.811 6.757A6.685 6.685 0 0 0 2.887 12l-.85 2.509 2.616-.831a6.818 6.818 0 0 0 10.557-5.64A6.791 6.791 0 0 0 8.4 1.282Zm4.09 8.607c-.051-.081-.183-.131-.381-.23s-1.175-.575-1.356-.64-.315-.1-.448.1-.512.641-.628.773-.231.148-.43.051a5.474 5.474 0 0 1-1.6-.978A5.927 5.927 0 0 1 6.545 7.6c-.117-.2-.012-.3.087-.4s.2-.23.3-.346a1.313 1.313 0 0 0 .2-.328.367.367 0 0 0-.017-.346c-.049-.1-.446-1.067-.612-1.462s-.33-.329-.447-.329-.248-.016-.38-.016a.727.727 0 0 0-.529.245 2.2 2.2 0 0 0-.695 1.643A3.809 3.809 0 0 0 5.259 8.3a8.132 8.132 0 0 0 3.392 2.974c2.019.788 2.019.525 2.383.492a2 2 0 0 0 1.34-.936 1.637 1.637 0 0 0 .116-.941Z"/></svg><svg viewBox="0 0 24 24" fill="none" id="youtube" xmlns="http://www.w3.org/2000/svg"><path d="M12.076 2.999h.134c1.233.004 7.48.049 9.165.502a3.015 3.015 0 0 1 2.122 2.13c.152.57.259 1.325.33 2.103l.015.156.034.39.011.156c.098 1.371.11 2.655.111 2.935v.113a48.123 48.123 0 0 1-.123 3.09l-.012.158-.013.155c-.075.858-.186 1.71-.353 2.337a3.009 3.009 0 0 1-2.122 2.13c-1.74.469-8.354.502-9.27.503h-.213c-.463 0-2.38-.009-4.39-.078l-.255-.009-.131-.006-.256-.01-.257-.011c-1.665-.073-3.25-.192-3.981-.39A3.01 3.01 0 0 1 .5 17.224C.333 16.6.222 15.745.147 14.887l-.012-.157-.012-.156A47.099 47.099 0 0 1 0 11.52v-.184c.003-.323.015-1.437.096-2.667l.01-.155.005-.078.012-.156.033-.39.015-.156c.072-.778.178-1.534.33-2.103a3.01 3.01 0 0 1 2.123-2.13c.73-.195 2.315-.315 3.98-.39l.255-.01.258-.01.13-.004.256-.01A149.64 149.64 0 0 1 11.787 3h.29v-.001ZM9.6 7.814v7.226l6.236-3.611L9.6 7.813Z" fill="#fff"/></svg></svg>