<svg viewBox="0 0 20 21" fill="none" xmlns="http://www.w3.org/2000/svg">
<path d="M18.125 0.0625H1.875C1.44402 0.0625 1.0307 0.233705 0.725951 0.538451C0.421205 0.843198 0.25 1.25652 0.25 1.6875V7.65734C0.25 16.7584 7.95047 19.7778 9.49219 20.2907C9.82147 20.4027 10.1785 20.4027 10.5078 20.2907C12.0516 19.7778 19.75 16.7584 19.75 7.65734V1.6875C19.75 1.25652 19.5788 0.843198 19.274 0.538451C18.9693 0.233705 18.556 0.0625 18.125 0.0625ZM18.125 7.65836C18.125 15.6229 11.3863 18.2838 10 18.747C8.62586 18.2889 1.875 15.63 1.875 7.65836V1.6875H18.125V7.65836ZM5.36266 10.3873C5.2102 10.2349 5.12455 10.0281 5.12455 9.8125C5.12455 9.59689 5.2102 9.39011 5.36266 9.23766C5.51511 9.0852 5.72189 8.99955 5.9375 8.99955C6.15311 8.99955 6.35989 9.0852 6.51234 9.23766L8.375 11.1003L13.4877 5.98766C13.5631 5.91217 13.6528 5.85228 13.7514 5.81143C13.85 5.77058 13.9557 5.74955 14.0625 5.74955C14.1693 5.74955 14.275 5.77058 14.3736 5.81143C14.4722 5.85228 14.5619 5.91217 14.6373 5.98766C14.7128 6.06315 14.7727 6.15276 14.8136 6.2514C14.8544 6.35003 14.8755 6.45574 14.8755 6.5625C14.8755 6.66926 14.8544 6.77497 14.8136 6.8736C14.7727 6.97224 14.7128 7.06185 14.6373 7.13734L8.94984 12.8248C8.87438 12.9004 8.78477 12.9603 8.68614 13.0012C8.5875 13.0421 8.48178 13.0631 8.375 13.0631C8.26822 13.0631 8.1625 13.0421 8.06386 13.0012C7.96523 12.9603 7.87562 12.9004 7.80016 12.8248L5.36266 10.3873Z" fill="#000000"/>
</svg>
