<svg viewBox="0 0 9 14" fill="none" xmlns="http://www.w3.org/2000/svg">
<path d="M0.807465 6.55746L7.05747 0.307464C7.11553 0.249395 7.18447 0.203333 7.26034 0.171906C7.33621 0.14048 7.41753 0.124304 7.49965 0.124304C7.58178 0.124304 7.66309 0.14048 7.73896 0.171906C7.81483 0.203333 7.88377 0.249395 7.94184 0.307464C7.99991 0.365533 8.04597 0.434471 8.0774 0.510342C8.10883 0.586212 8.125 0.66753 8.125 0.749652C8.125 0.831774 8.10883 0.913092 8.0774 0.988962C8.04597 1.06483 7.99991 1.13377 7.94184 1.19184L2.13325 6.99965L7.94184 12.8075C8.05912 12.9247 8.125 13.0838 8.125 13.2497C8.125 13.4155 8.05912 13.5746 7.94184 13.6918C7.82456 13.8091 7.6655 13.875 7.49965 13.875C7.3338 13.875 7.17474 13.8091 7.05746 13.6918L0.807465 7.44184C0.749355 7.38379 0.703255 7.31486 0.671803 7.23899C0.64035 7.16312 0.624162 7.08179 0.624162 6.99965C0.624162 6.91752 0.64035 6.83619 0.671803 6.76031C0.703255 6.68444 0.749355 6.61551 0.807465 6.55746Z" fill="#A37E2C"/>
</svg>
