<svg viewBox="0 0 16 18" fill="none" xmlns="http://www.w3.org/2000/svg">
<path d="M15.2807 8.03024C15.211 8.09997 15.1283 8.15529 15.0373 8.19303C14.9462 8.23078 14.8486 8.2502 14.7501 8.2502C14.6515 8.2502 14.5539 8.23078 14.4628 8.19303C14.3718 8.15529 14.2891 8.09997 14.2194 8.03024L8.75005 2.55993V17.2496C8.75005 17.4485 8.67103 17.6393 8.53038 17.7799C8.38973 17.9206 8.19896 17.9996 8.00005 17.9996C7.80114 17.9996 7.61037 17.9206 7.46972 17.7799C7.32907 17.6393 7.25005 17.4485 7.25005 17.2496V2.55993L1.78068 8.03024C1.63995 8.17097 1.44907 8.25003 1.25005 8.25003C1.05103 8.25003 0.860156 8.17097 0.719426 8.03024C0.578695 7.88951 0.499634 7.69864 0.499634 7.49961C0.499634 7.30059 0.578695 7.10972 0.719426 6.96899L7.46943 0.218988C7.53908 0.149256 7.6218 0.0939369 7.71285 0.0561936C7.80389 0.0184504 7.90149 -0.000976562 8.00005 -0.000976562C8.09861 -0.000976562 8.19621 0.0184504 8.28726 0.0561936C8.3783 0.0939369 8.46102 0.149256 8.53068 0.218988L15.2807 6.96899C15.3504 7.03864 15.4057 7.12136 15.4435 7.21241C15.4812 7.30346 15.5006 7.40105 15.5006 7.49961C15.5006 7.59818 15.4812 7.69577 15.4435 7.78682C15.4057 7.87787 15.3504 7.96058 15.2807 8.03024Z" fill="#A37E2C"/>
</svg>
