<svg viewBox="0 0 14 14" fill="none" xmlns="http://www.w3.org/2000/svg">
<path d="M13.067 12.1832C13.1251 12.2412 13.1712 12.3102 13.2026 12.386C13.234 12.4619 13.2502 12.5432 13.2502 12.6253C13.2502 12.7075 13.234 12.7888 13.2026 12.8647C13.1712 12.9405 13.1251 13.0095 13.067 13.0675C13.009 13.1256 12.94 13.1717 12.8642 13.2031C12.7883 13.2345 12.707 13.2507 12.6249 13.2507C12.5427 13.2507 12.4614 13.2345 12.3855 13.2031C12.3097 13.1717 12.2407 13.1256 12.1827 13.0675L6.99986 7.88394L1.81705 13.0675C1.69977 13.1848 1.54071 13.2507 1.37486 13.2507C1.20901 13.2507 1.04995 13.1848 0.932672 13.0675C0.815396 12.9503 0.749512 12.7912 0.749512 12.6253C0.749512 12.4595 0.815396 12.3004 0.932672 12.1832L6.11627 7.00035L0.932672 1.81753C0.815396 1.70026 0.749512 1.5412 0.749512 1.37535C0.749512 1.2095 0.815396 1.05044 0.932672 0.93316C1.04995 0.815885 1.20901 0.75 1.37486 0.75C1.54071 0.75 1.69977 0.815885 1.81705 0.93316L6.99986 6.11675L12.1827 0.93316C12.2999 0.815885 12.459 0.75 12.6249 0.75C12.7907 0.75 12.9498 0.815885 13.067 0.93316C13.1843 1.05044 13.2502 1.2095 13.2502 1.37535C13.2502 1.5412 13.1843 1.70026 13.067 1.81753L7.88345 7.00035L13.067 12.1832Z" fill="#8D6C20"/>
</svg>