<svg viewBox="0 0 16 14" fill="none" xmlns="http://www.w3.org/2000/svg">
<path d="M14.1875 0.375H1.81252C1.51415 0.375 1.228 0.493526 1.01702 0.704505C0.806046 0.915483 0.68752 1.20163 0.68752 1.5V12.75C0.686248 12.9644 0.746868 13.1747 0.862106 13.3555C0.977344 13.5364 1.14231 13.6801 1.33721 13.7695C1.48614 13.8387 1.64832 13.8747 1.81252 13.875C2.07662 13.8744 2.33195 13.7802 2.53322 13.6092C2.53658 13.607 2.53965 13.6044 2.54236 13.6015L4.8008 11.625H14.1875C14.4859 11.625 14.772 11.5065 14.983 11.2955C15.194 11.0845 15.3125 10.7984 15.3125 10.5V1.5C15.3125 1.20163 15.194 0.915483 14.983 0.704505C14.772 0.493526 14.4859 0.375 14.1875 0.375ZM14.1875 10.5H4.8008C4.53588 10.4999 4.27941 10.5933 4.07658 10.7637L4.06814 10.7714L1.81252 12.75V1.5H14.1875V10.5ZM5.18752 4.875C5.18752 4.72582 5.24678 4.58274 5.35227 4.47725C5.45776 4.37176 5.60084 4.3125 5.75002 4.3125H10.25C10.3992 4.3125 10.5423 4.37176 10.6478 4.47725C10.7533 4.58274 10.8125 4.72582 10.8125 4.875C10.8125 5.02418 10.7533 5.16726 10.6478 5.27275C10.5423 5.37824 10.3992 5.4375 10.25 5.4375H5.75002C5.60084 5.4375 5.45776 5.37824 5.35227 5.27275C5.24678 5.16726 5.18752 5.02418 5.18752 4.875ZM5.18752 7.125C5.18752 6.97582 5.24678 6.83274 5.35227 6.72725C5.45776 6.62176 5.60084 6.5625 5.75002 6.5625H10.25C10.3992 6.5625 10.5423 6.62176 10.6478 6.72725C10.7533 6.83274 10.8125 6.97582 10.8125 7.125C10.8125 7.27418 10.7533 7.41726 10.6478 7.52275C10.5423 7.62824 10.3992 7.6875 10.25 7.6875H5.75002C5.60084 7.6875 5.45776 7.62824 5.35227 7.52275C5.24678 7.41726 5.18752 7.27418 5.18752 7.125Z" fill="white"/>
</svg>
