<svg viewBox="0 0 22 21" fill="none" xmlns="http://www.w3.org/2000/svg">
<path d="M19.9375 6.31294H16.3747C16.4143 6.27943 16.4549 6.24693 16.4935 6.21138C16.802 5.93734 17.0506 5.6026 17.2237 5.2281C17.3969 4.8536 17.491 4.4474 17.5 4.03489C17.5133 3.58363 17.4343 3.13439 17.2678 2.71477C17.1012 2.29515 16.8506 1.914 16.5314 1.59472C16.2123 1.27544 15.8312 1.02476 15.4116 0.858081C14.992 0.691401 14.5428 0.612234 14.0916 0.625441C13.6789 0.63433 13.2725 0.728309 12.8978 0.901495C12.5231 1.07468 12.1882 1.32335 11.9141 1.63193C11.5347 2.07158 11.2263 2.56777 11 3.10255C10.7737 2.56777 10.4653 2.07158 10.0859 1.63193C9.81178 1.32335 9.47688 1.07468 9.1022 0.901495C8.72752 0.728309 8.32111 0.63433 7.90844 0.625441C7.45716 0.612234 7.00795 0.691401 6.58838 0.858081C6.16881 1.02476 5.78774 1.27544 5.46855 1.59472C5.14936 1.914 4.8988 2.29515 4.73225 2.71477C4.56569 3.13439 4.48666 3.58363 4.5 4.03489C4.50903 4.4474 4.60307 4.8536 4.77625 5.2281C4.94944 5.6026 5.19803 5.93734 5.50648 6.21138C5.54508 6.24489 5.5857 6.27739 5.62531 6.31294H2.0625C1.63152 6.31294 1.2182 6.48415 0.913451 6.78889C0.608705 7.09364 0.4375 7.50696 0.4375 7.93794V11.1879C0.4375 11.6189 0.608705 12.0322 0.913451 12.337C1.2182 12.6417 1.63152 12.8129 2.0625 12.8129V19.3129C2.0625 19.7439 2.2337 20.1572 2.53845 20.462C2.8432 20.7667 3.25652 20.9379 3.6875 20.9379H18.3125C18.7435 20.9379 19.1568 20.7667 19.4615 20.462C19.7663 20.1572 19.9375 19.7439 19.9375 19.3129V12.8129C20.3685 12.8129 20.7818 12.6417 21.0865 12.337C21.3913 12.0322 21.5625 11.6189 21.5625 11.1879V7.93794C21.5625 7.50696 21.3913 7.09364 21.0865 6.78889C20.7818 6.48415 20.3685 6.31294 19.9375 6.31294ZM13.1328 2.70849C13.2615 2.56642 13.4181 2.45249 13.5929 2.37384C13.7676 2.29519 13.9568 2.25352 14.1484 2.25146H14.1982C14.4228 2.25286 14.6449 2.29909 14.8514 2.38742C15.058 2.47575 15.2448 2.60442 15.401 2.76589C15.5571 2.92735 15.6795 3.11836 15.7609 3.32772C15.8423 3.53708 15.8811 3.76058 15.875 3.98513C15.8729 4.17678 15.8313 4.36592 15.7526 4.5407C15.674 4.71548 15.56 4.87211 15.418 5.00075C14.4541 5.85388 12.8545 6.1545 11.8633 6.26013C11.9852 5.18458 12.3203 3.62153 13.1328 2.70849ZM6.62367 2.74505C6.93846 2.4303 7.36478 2.25254 7.80992 2.25044H7.85969C8.05133 2.25251 8.24048 2.29417 8.41526 2.37282C8.59004 2.45147 8.74667 2.56541 8.87531 2.70747C9.72742 3.67028 10.028 5.26685 10.1337 6.25403C9.14648 6.15247 7.54992 5.84778 6.58711 4.99568C6.44504 4.86703 6.33111 4.7104 6.25246 4.53562C6.17381 4.36085 6.13215 4.1717 6.13008 3.98005C6.12378 3.75177 6.16392 3.5246 6.24807 3.3123C6.33222 3.10001 6.45862 2.90702 6.61961 2.74505H6.62367ZM2.0625 7.93794H10.1875V11.1879H2.0625V7.93794ZM3.6875 12.8129H10.1875V19.3129H3.6875V12.8129ZM18.3125 19.3129H11.8125V12.8129H18.3125V19.3129ZM19.9375 11.1879H11.8125V7.93794H19.9375V11.1879Z" fill="#000000"/>
</svg>
