<svg viewBox="0 0 26 21" fill="none" xmlns="http://www.w3.org/2000/svg">
<path d="M24.9845 7.02727L19.297 0.527266C19.221 0.440412 19.1273 0.370761 19.0222 0.322952C18.9171 0.275142 18.8031 0.250273 18.6876 0.25H7.31262C7.19718 0.250273 7.08313 0.275142 6.97805 0.322952C6.87298 0.370761 6.77929 0.440412 6.70325 0.527266L1.01575 7.02727C0.883064 7.17875 0.811365 7.37412 0.814555 7.57547C0.817745 7.77683 0.895597 7.96982 1.03301 8.11703L12.408 20.3045C12.484 20.386 12.576 20.451 12.6782 20.4955C12.7804 20.5399 12.8907 20.5628 13.0022 20.5628C13.1136 20.5628 13.2239 20.5399 13.3261 20.4955C13.4283 20.451 13.5203 20.386 13.5963 20.3045L24.9713 8.11703C25.1081 7.96931 25.1853 7.77604 25.1877 7.57469C25.1901 7.37334 25.1177 7.17826 24.9845 7.02727ZM22.5846 6.75H18.2814L14.6251 1.875H18.319L22.5846 6.75ZM7.57466 8.375L10.6347 16.0257L3.49489 8.375H7.57466ZM16.6747 8.375L13.0001 17.5623L9.32559 8.375H16.6747ZM9.75012 6.75L13.0001 2.41633L16.2501 6.75H9.75012ZM18.4256 8.375H22.5054L15.3655 16.0257L18.4256 8.375ZM7.68129 1.875H11.3751L7.71887 6.75H3.41567L7.68129 1.875Z" fill="#000000"/>
</svg>