<svg viewBox="0 0 18 18" fill="none" xmlns="http://www.w3.org/2000/svg">
<path d="M11.9424 6.05764C12.0005 6.11569 12.0466 6.18462 12.0781 6.26049C12.1095 6.33636 12.1257 6.41769 12.1257 6.49983C12.1257 6.58196 12.1095 6.66329 12.0781 6.73916C12.0466 6.81504 12.0005 6.88397 11.9424 6.94201L6.94241 11.942C6.88434 12.0001 6.8154 12.0461 6.73953 12.0776C6.66366 12.109 6.58234 12.1252 6.50022 12.1252C6.4181 12.1252 6.33678 12.109 6.26091 12.0776C6.18504 12.0461 6.1161 12.0001 6.05803 11.942C5.99997 11.8839 5.9539 11.815 5.92248 11.7391C5.89105 11.6633 5.87488 11.5819 5.87488 11.4998C5.87488 11.4177 5.89105 11.3364 5.92248 11.2605C5.9539 11.1846 5.99997 11.1157 6.05803 11.0576L11.058 6.05764C11.1161 5.99953 11.185 5.95343 11.2609 5.92198C11.3368 5.89052 11.4181 5.87434 11.5002 5.87434C11.5824 5.87434 11.6637 5.89052 11.7396 5.92198C11.8154 5.95343 11.8844 5.99953 11.9424 6.05764ZM15.844 2.15608C15.4377 1.74977 14.9554 1.42747 14.4246 1.20758C13.8937 0.987689 13.3248 0.874512 12.7502 0.874512C12.1757 0.874512 11.6067 0.987689 11.0759 1.20758C10.5451 1.42747 10.0627 1.74977 9.65647 2.15608L7.30803 4.50373C7.19076 4.62101 7.12488 4.78007 7.12488 4.94592C7.12488 5.11177 7.19076 5.27083 7.30803 5.38811C7.42531 5.50538 7.58437 5.57127 7.75022 5.57127C7.91607 5.57127 8.07513 5.50538 8.19241 5.38811L10.5408 3.04436C11.129 2.46909 11.9204 2.14898 12.7431 2.15351C13.5658 2.15804 14.3536 2.48684 14.9354 3.06856C15.5172 3.65028 15.8462 4.43797 15.8508 5.2607C15.8555 6.08343 15.5355 6.87482 14.9604 7.46311L12.6112 9.81155C12.4939 9.92872 12.428 10.0877 12.4279 10.2535C12.4278 10.4192 12.4936 10.5783 12.6108 10.6955C12.7279 10.8128 12.8869 10.8787 13.0527 10.8788C13.2185 10.8789 13.3775 10.8131 13.4948 10.6959L15.844 8.34358C16.2503 7.93731 16.5726 7.455 16.7925 6.92417C17.0124 6.39334 17.1255 5.8244 17.1255 5.24983C17.1255 4.67526 17.0124 4.10631 16.7925 3.57548C16.5726 3.04466 16.2503 2.56234 15.844 2.15608ZM9.80803 12.6108L7.4596 14.9592C7.1706 15.2547 6.82585 15.4899 6.44531 15.6513C6.06478 15.8126 5.65602 15.8968 5.2427 15.8991C4.82938 15.9014 4.41972 15.8217 4.03743 15.6645C3.65515 15.5074 3.30783 15.276 3.01559 14.9837C2.72335 14.6914 2.492 14.344 2.33493 13.9617C2.17786 13.5794 2.09819 13.1697 2.10054 12.7564C2.10289 12.3431 2.18721 11.9343 2.34862 11.5538C2.51002 11.1733 2.74531 10.8286 3.04085 10.5397L5.3885 8.19201C5.50578 8.07474 5.57166 7.91568 5.57166 7.74983C5.57166 7.58397 5.50578 7.42491 5.3885 7.30764C5.27123 7.19036 5.11217 7.12448 4.94632 7.12448C4.78046 7.12448 4.6214 7.19036 4.50413 7.30764L2.15647 9.65608C1.33596 10.4766 0.875 11.5894 0.875 12.7498C0.875 13.9102 1.33596 15.0231 2.15647 15.8436C2.97699 16.6641 4.08984 17.125 5.25022 17.125C6.4106 17.125 7.52346 16.6641 8.34397 15.8436L10.6924 13.4944C10.8096 13.3771 10.8754 13.2181 10.8753 13.0523C10.8752 12.8865 10.8093 12.7275 10.692 12.6104C10.5747 12.4932 10.4157 12.4274 10.2499 12.4275C10.0842 12.4276 9.92521 12.4935 9.80803 12.6108Z" fill="black"/>
</svg>
