<svg viewBox="0 0 20 20" fill="none" xmlns="http://www.w3.org/2000/svg">
<path d="M10 19.375C15.1875 19.375 19.375 15.1875 19.375 10H0.625C0.625 15.1875 4.8125 19.375 10 19.375Z" fill="#F9F9F9"/>
<path d="M10 0.625C4.8125 0.625 0.625 4.8125 0.625 10H19.375C19.375 4.8125 15.1875 0.625 10 0.625Z" fill="#E6143A"/>
<path d="M6.625 5.46875L6.25 5.15625H6.71875L6.875 4.6875L7.03125 5.15625H7.5L7.125 5.46875L7.25 5.9375L6.875 5.65625L6.5 5.9375L6.625 5.46875ZM9.125 5.46875L8.75 5.15625H9.21875L9.375 4.6875L9.53125 5.15625H10L9.625 5.46875L9.75 5.9375L9.375 5.65625L9 5.9375L9.125 5.46875ZM6.9375 7.03125L6.5625 6.71875H7.03125L7.1875 6.25L7.34375 6.71875H7.8125L7.4375 7.03125L7.5625 7.5L7.1875 7.21875L6.8125 7.5L6.9375 7.03125ZM8.8125 7.03125L8.4375 6.71875H8.90625L9.0625 6.25L9.21875 6.71875H9.6875L9.3125 7.03125L9.4375 7.5L9.0625 7.21875L8.6875 7.5L8.8125 7.03125ZM7.875 4.53125L7.5 4.21875H7.96875L8.125 3.75L8.28125 4.21875H8.75L8.375 4.53125L8.5 5L8.125 4.71875L7.75 5L7.875 4.53125Z" fill="#F9F9F9"/>
<path d="M7.625 8.75C6.125 8.75 4.9375 7.46875 4.9375 5.90625C4.9375 4.34375 6.15625 3.0625 7.625 3.0625C7.75 3.0625 7.84375 3.0625 7.9375 3.09375C7.5625 2.90625 7.15625 2.8125 6.71875 2.8125C5.09375 2.8125 3.75 4.21875 3.75 5.9375C3.75 7.65625 5.09375 9.0625 6.71875 9.0625C7.21875 9.0625 7.71875 8.9375 8.125 8.6875C7.96875 8.71875 7.8125 8.75 7.625 8.75Z" fill="#F9F9F9"/>
</svg>
