<svg viewBox="0 0 20 20" fill="none" xmlns="http://www.w3.org/2000/svg">
<path d="M0 0H20V20H0V0Z" fill="#D80027"/>
<path d="M11.031 7.5664C10.8045 8.51171 10.4021 8.33203 10.2029 9.15624C9.65199 9.01215 9.17953 8.65783 8.88692 8.16932C8.59431 7.68081 8.50487 7.09706 8.6378 6.54336C8.77073 5.98966 9.11543 5.51013 9.59793 5.20771C10.0804 4.90528 10.6622 4.80407 11.2185 4.92578C10.824 6.57421 11.2341 6.72265 11.031 7.5664ZM8.00758 8.26562C8.83571 8.77343 8.53883 9.10156 9.26149 9.54687C8.94962 10.0159 8.46802 10.3457 7.91799 10.4669C7.36796 10.5881 6.79236 10.4913 6.31223 10.1969C5.8321 9.9024 5.48486 9.43324 5.34354 8.88803C5.20221 8.34281 5.27782 7.76404 5.55446 7.27343C6.99977 8.16015 7.26539 7.8125 8.00758 8.26562ZM7.73414 11.3633C8.47633 10.7305 8.69899 11.1133 9.34352 10.5664C9.68861 11.0085 9.84967 11.5667 9.7931 12.1247C9.73653 12.6827 9.46669 13.1972 9.03988 13.5611C8.61308 13.9249 8.06228 14.1098 7.50239 14.0774C6.94251 14.0449 6.41679 13.7974 6.03493 13.3867C7.32399 12.2852 7.07399 11.9258 7.73805 11.3633H7.73414ZM10.6013 12.5742C10.2263 11.6758 10.6599 11.5859 10.3357 10.8047C10.8619 10.615 11.441 10.6354 11.9527 10.8614C12.4643 11.0875 12.8692 11.5019 13.0834 12.0187C13.2975 12.5354 13.3044 13.1148 13.1026 13.6365C12.9009 14.1582 12.5059 14.5821 11.9998 14.8203C11.3513 13.2578 10.9334 13.3789 10.6013 12.5781V12.5742ZM12.6404 10.2305C11.6677 10.3086 11.7146 9.86718 10.8709 9.93359C10.8452 9.36944 11.0398 8.8174 11.4137 8.39415C11.7876 7.9709 12.3114 7.7096 12.8744 7.66547C13.4374 7.62134 13.9955 7.79785 14.4307 8.15768C14.866 8.51751 15.1443 9.03248 15.2068 9.59375C13.5154 9.72656 13.5037 10.1602 12.6404 10.2305Z" fill="#EEEEEE"/>
</svg>