<svg viewBox="0 0 20 20" fill="none" xmlns="http://www.w3.org/2000/svg">
<path d="M17.5 4.375H10V6.25H18.5938C18.3125 5.59375 17.9375 4.9375 17.5 4.375Z" fill="#E30D0D"/>
<path d="M19.1875 11.875C19.3125 11.2812 19.375 10.6562 19.375 10H0.625C0.625 10.6562 0.6875 11.2812 0.8125 11.875H19.1875Z" fill="#F9F9F9"/>
<path d="M10 0.625V2.5H15.625C14.0625 1.3125 12.125 0.625 10 0.625Z" fill="#E30D0D"/>
<path d="M10 4.375H17.5C16.9687 3.65625 16.3437 3.03125 15.625 2.5H10V4.375ZM18.5937 6.25H10V8.125H19.1875C19.0625 7.46875 18.8437 6.84375 18.5937 6.25Z" fill="#F9F9F9"/>
<path d="M10 8.125V10H19.375C19.375 9.34375 19.3125 8.71875 19.1875 8.125H10ZM1.40625 13.75H18.5938C18.8438 13.1562 19.0625 12.5312 19.1875 11.875H0.8125C0.9375 12.5312 1.15625 13.1562 1.40625 13.75Z" fill="#E30D0D"/>
<path d="M2.5 15.625H17.5C17.9375 15.0625 18.3125 14.4062 18.5938 13.75H1.40625C1.6875 14.4062 2.0625 15.0625 2.5 15.625Z" fill="#F9F9F9"/>
<path d="M2.5 15.625C3.03125 16.3438 3.65625 16.9688 4.375 17.5H15.625C16.3438 16.9688 16.9688 16.3438 17.5 15.625H2.5Z" fill="#E30D0D"/>
<path d="M4.375 17.5C5.9375 18.6875 7.875 19.375 10 19.375C12.125 19.375 14.0625 18.6875 15.625 17.5H4.375Z" fill="#F9F9F9"/>
<path d="M10 0.625C4.8125 0.625 0.625 4.8125 0.625 10H10V0.625Z" fill="#2A5F9E"/>
<path d="M6.21875 8C5.28125 8 4.5 7.21875 4.5 6.25C4.5 5.28125 5.28125 4.5 6.21875 4.5C6.59375 4.5 6.90625 4.625 7.1875 4.8125C6.78125 4.34375 6.21875 4.0625 5.5625 4.0625C4.375 4.0625 3.4375 5.03125 3.4375 6.25C3.4375 7.46875 4.40625 8.4375 5.5625 8.4375C6.21875 8.4375 6.78125 8.15625 7.1875 7.6875C6.90625 7.875 6.5625 8 6.21875 8ZM8.125 5.875L8.34375 5.3125L8.28125 5.90625L8.71875 5.5L8.40625 6.03125L8.96875 5.84375L8.46875 6.15625L9.0625 6.25L8.46875 6.34375L8.96875 6.65625L8.40625 6.46875L8.71875 7L8.28125 6.59375L8.34375 7.1875L8.125 6.625L7.90625 7.1875L7.96875 6.59375L7.53125 7L7.84375 6.46875L7.28125 6.65625L7.78125 6.34375L7.1875 6.25L7.78125 6.15625L7.28125 5.84375L7.84375 6.03125L7.53125 5.5L7.96875 5.90625L7.90625 5.3125L8.125 5.875Z" fill="#FFE62E"/>
</svg>
