<svg viewBox="0 0 22 22" fill="none" xmlns="http://www.w3.org/2000/svg">
<path d="M21.3248 20.1751L16.2396 15.0909C17.7135 13.3214 18.4485 11.0518 18.2916 8.75417C18.1347 6.45657 17.0981 4.30789 15.3974 2.75512C13.6967 1.20234 11.4628 0.365027 9.16039 0.417352C6.85803 0.469677 4.66448 1.40761 3.03605 3.03605C1.40761 4.66448 0.469677 6.85803 0.417352 9.16039C0.365027 11.4628 1.20234 13.6967 2.75512 15.3974C4.30789 17.0981 6.45657 18.1347 8.75417 18.2916C11.0518 18.4485 13.3214 17.7135 15.0909 16.2396L20.1751 21.3248C20.2506 21.4003 20.3403 21.4602 20.4389 21.5011C20.5375 21.5419 20.6432 21.5629 20.75 21.5629C20.8567 21.5629 20.9625 21.5419 21.0611 21.5011C21.1597 21.4602 21.2493 21.4003 21.3248 21.3248C21.4003 21.2493 21.4602 21.1597 21.5011 21.0611C21.5419 20.9625 21.5629 20.8567 21.5629 20.75C21.5629 20.6432 21.5419 20.5375 21.5011 20.4389C21.4602 20.3403 21.4003 20.2506 21.3248 20.1751ZM2.06249 9.37499C2.06249 7.92871 2.49136 6.51491 3.29487 5.31238C4.09837 4.10985 5.24043 3.17258 6.57662 2.61912C7.9128 2.06565 9.3831 1.92084 10.8016 2.203C12.2201 2.48515 13.523 3.1816 14.5457 4.20427C15.5684 5.22694 16.2648 6.5299 16.547 7.94839C16.8291 9.36688 16.6843 10.8372 16.1309 12.1734C15.5774 13.5095 14.6401 14.6516 13.4376 15.4551C12.2351 16.2586 10.8213 16.6875 9.37499 16.6875C7.43625 16.6853 5.57754 15.9142 4.20664 14.5433C2.83575 13.1724 2.06464 11.3137 2.06249 9.37499Z" fill="#000000"/>
</svg> 