<svg viewBox="0 0 19 22" fill="none" xmlns="http://www.w3.org/2000/svg">
<path d="M14.5002 14.0001C13.9999 13.9999 13.5047 14.1001 13.0438 14.2948C12.5829 14.4895 12.1658 14.7747 11.8171 15.1335L7.49522 12.3557C7.83519 11.4839 7.83519 10.5162 7.49522 9.64445L11.8171 6.86664C12.4663 7.53162 13.3392 7.93187 14.2668 7.98979C15.1943 8.0477 16.1103 7.75915 16.8371 7.18009C17.564 6.60102 18.0499 5.77269 18.2007 4.85569C18.3516 3.93869 18.1565 2.99835 17.6534 2.21698C17.1503 1.43562 16.375 0.868892 15.4778 0.626682C14.5806 0.384471 13.6254 0.484032 12.7975 0.906062C11.9695 1.32809 11.3277 2.04252 10.9966 2.91084C10.6655 3.77917 10.6685 4.73951 11.0052 5.6057L6.68335 8.38351C6.16291 7.84921 5.49496 7.48224 4.76489 7.32952C4.03481 7.1768 3.27578 7.24527 2.58481 7.52617C1.89385 7.80707 1.30235 8.28764 0.885924 8.90645C0.469499 9.52526 0.24707 10.2542 0.24707 11.0001C0.24707 11.746 0.469499 12.4749 0.885924 13.0937C1.30235 13.7125 1.89385 14.1931 2.58481 14.474C3.27578 14.7549 4.03481 14.8233 4.76489 14.6706C5.49496 14.5179 6.16291 14.1509 6.68335 13.6166L11.0052 16.3944C10.7157 17.1412 10.6729 17.961 10.883 18.7339C11.0931 19.5067 11.5451 20.192 12.1729 20.6894C12.8006 21.1867 13.5712 21.47 14.3716 21.4978C15.172 21.5256 15.9603 21.2964 16.621 20.8437C17.2818 20.3911 17.7802 19.7388 18.0434 18.9823C18.3066 18.2259 18.3206 17.4051 18.0836 16.64C17.8465 15.875 17.3707 15.206 16.7259 14.731C16.0811 14.2559 15.3011 13.9998 14.5002 14.0001ZM14.5002 2.00007C14.9452 2.00007 15.3802 2.13203 15.7503 2.37927C16.1203 2.6265 16.4087 2.9779 16.579 3.38904C16.7493 3.80017 16.7938 4.25257 16.707 4.68903C16.6202 5.12548 16.4059 5.5264 16.0912 5.84106C15.7765 6.15573 15.3756 6.37002 14.9392 6.45684C14.5027 6.54366 14.0503 6.4991 13.6392 6.3288C13.2281 6.15851 12.8767 5.87012 12.6294 5.50011C12.3822 5.1301 12.2502 4.69508 12.2502 4.25007C12.2502 3.65334 12.4873 3.08104 12.9092 2.65908C13.3312 2.23713 13.9035 2.00007 14.5002 2.00007ZM4.00023 13.2501C3.55522 13.2501 3.1202 13.1181 2.75019 12.8709C2.38018 12.6236 2.09179 12.2722 1.9215 11.8611C1.7512 11.45 1.70664 10.9976 1.79346 10.5611C1.88028 10.1247 2.09457 9.72375 2.40924 9.40908C2.7239 9.09441 3.12481 8.88012 3.56127 8.79331C3.99773 8.70649 4.45013 8.75105 4.86126 8.92134C5.2724 9.09164 5.6238 9.38003 5.87103 9.75004C6.11827 10.1201 6.25023 10.5551 6.25023 11.0001C6.25023 11.5968 6.01317 12.1691 5.59122 12.5911C5.16926 13.013 4.59696 13.2501 4.00023 13.2501ZM14.5002 20.0001C14.0552 20.0001 13.6202 19.8681 13.2502 19.6209C12.8802 19.3736 12.5918 19.0222 12.4215 18.6111C12.2512 18.2 12.2066 17.7476 12.2935 17.3111C12.3803 16.8747 12.5946 16.4738 12.9092 16.1591C13.2239 15.8444 13.6248 15.6301 14.0613 15.5433C14.4977 15.4565 14.9501 15.501 15.3613 15.6713C15.7724 15.8416 16.1238 16.13 16.371 16.5C16.6183 16.8701 16.7502 17.3051 16.7502 17.7501C16.7502 18.3468 16.5132 18.9191 16.0912 19.3411C15.6693 19.763 15.097 20.0001 14.5002 20.0001Z" fill="#8D6C20"/>
</svg>
