<svg viewBox="0 0 19 18" fill="none" xmlns="http://www.w3.org/2000/svg">
<path d="M9.5 0.0625C7.73233 0.0625 6.00436 0.586675 4.53459 1.56874C3.06483 2.55081 1.91929 3.94665 1.24283 5.57977C0.566372 7.21288 0.38938 9.00991 0.734236 10.7436C1.07909 12.4773 1.93031 14.0698 3.18024 15.3198C4.43017 16.5697 6.02268 17.4209 7.75638 17.7658C9.49009 18.1106 11.2871 17.9336 12.9202 17.2572C14.5534 16.5807 15.9492 15.4352 16.9313 13.9654C17.9133 12.4956 18.4375 10.7677 18.4375 9C18.435 6.6304 17.4926 4.35856 15.817 2.683C14.1414 1.00743 11.8696 0.0650023 9.5 0.0625ZM9.5 16.5625C8.00428 16.5625 6.54215 16.119 5.2985 15.288C4.05486 14.457 3.08555 13.2759 2.51316 11.894C1.94078 10.5122 1.79101 8.99161 2.08282 7.52463C2.37462 6.05765 3.09487 4.71014 4.15251 3.65251C5.21014 2.59487 6.55765 1.87461 8.02463 1.58281C9.49161 1.29101 11.0122 1.44077 12.394 2.01316C13.7759 2.58555 14.957 3.55485 15.788 4.7985C16.619 6.04215 17.0625 7.50428 17.0625 9C17.0602 11.005 16.2627 12.9272 14.845 14.345C13.4272 15.7627 11.505 16.5602 9.5 16.5625ZM15 9C15 9.18234 14.9276 9.35721 14.7986 9.48614C14.6697 9.61507 14.4948 9.6875 14.3125 9.6875H9.5C9.31767 9.6875 9.1428 9.61507 9.01387 9.48614C8.88494 9.35721 8.8125 9.18234 8.8125 9V4.1875C8.8125 4.00516 8.88494 3.8303 9.01387 3.70136C9.1428 3.57243 9.31767 3.5 9.5 3.5C9.68234 3.5 9.85721 3.57243 9.98614 3.70136C10.1151 3.8303 10.1875 4.00516 10.1875 4.1875V8.3125H14.3125C14.4948 8.3125 14.6697 8.38493 14.7986 8.51386C14.9276 8.6428 15 8.81766 15 9Z" fill="#8D6C20"/>
</svg>
