<svg viewBox="0 0 24 24" fill="none" xmlns="http://www.w3.org/2000/svg">
<path d="M16.7639 21.6434C12.7664 21.6434 9.5249 18.9434 9.5249 15.6164C9.5249 12.2864 12.7634 9.58643 16.7609 9.58643C20.7584 9.58643 23.9999 12.2864 23.9999 15.6164C23.9999 17.4314 23.0249 19.0679 21.5009 20.1704C21.4161 20.2306 21.3529 20.3165 21.3205 20.4153C21.2881 20.5141 21.2882 20.6207 21.3209 20.7194L21.6479 21.9344C21.6681 21.9914 21.6827 22.0501 21.6914 22.1099C21.6899 22.1739 21.6638 22.2348 21.6185 22.2801C21.5733 22.3253 21.5124 22.3514 21.4484 22.3529C21.3991 22.351 21.3513 22.3355 21.3104 22.3079L19.7249 21.3929C19.6087 21.3231 19.4764 21.2849 19.3409 21.2819C19.2688 21.2823 19.1971 21.2929 19.1279 21.3134C18.3593 21.534 17.5635 21.6451 16.7639 21.6434ZM13.5959 14.3129C13.6872 14.453 13.8131 14.5672 13.9614 14.6443C14.1098 14.7214 14.2755 14.7589 14.4426 14.7531C14.6097 14.7473 14.7725 14.6984 14.9152 14.6113C15.0578 14.5241 15.1756 14.4015 15.2569 14.2554C15.3383 14.1094 15.3805 13.9447 15.3795 13.7775C15.3786 13.6104 15.3344 13.4462 15.2514 13.3011C15.1683 13.156 15.0492 13.0348 14.9055 12.9493C14.7619 12.8637 14.5986 12.8168 14.4314 12.8129C14.304 12.8127 14.1778 12.8377 14.06 12.8864C13.9422 12.9351 13.8353 13.0066 13.7452 13.0968C13.6552 13.187 13.5839 13.2941 13.5353 13.4119C13.4868 13.5297 13.462 13.656 13.4624 13.7834C13.4529 13.9695 13.4985 14.1541 13.5959 14.3129ZM18.4439 14.3144C18.5357 14.4545 18.6621 14.5683 18.811 14.645C18.9598 14.7216 19.126 14.7583 19.2933 14.7516C19.4606 14.7449 19.6233 14.695 19.7655 14.6066C19.9078 14.5183 20.0247 14.3947 20.1049 14.2478C20.1852 14.1008 20.2259 13.9356 20.2233 13.7682C20.2207 13.6008 20.1747 13.4369 20.0899 13.2926C20.0051 13.1482 19.8844 13.0283 19.7394 12.9445C19.5945 12.8607 19.4303 12.8159 19.2629 12.8144C19.0068 12.8148 18.7613 12.9167 18.5803 13.0978C18.3992 13.2789 18.2973 13.5243 18.2969 13.7804C18.2912 13.9691 18.3424 14.1552 18.4439 14.3144Z" fill="white"/>
<path d="M0 10.239C0 12.4215 1.1715 14.3865 3.0015 15.723C3.10363 15.7948 3.17974 15.8978 3.21841 16.0165C3.25708 16.1352 3.25624 16.2633 3.216 16.3815L2.9745 17.2815L2.8245 17.841C2.79846 17.9083 2.78229 17.9791 2.7765 18.051C2.7763 18.0891 2.78365 18.1268 2.79813 18.162C2.81261 18.1972 2.83393 18.2292 2.86085 18.2562C2.88777 18.2831 2.91976 18.3044 2.95498 18.3189C2.99019 18.3333 3.02793 18.3407 3.066 18.3405C3.1245 18.3405 3.1815 18.3255 3.2325 18.297L5.1345 17.1975C5.27433 17.1139 5.43362 17.0684 5.5965 17.0655C5.6835 17.0655 5.7705 17.079 5.853 17.103C6.64681 17.3308 7.46525 17.4617 8.2905 17.493C8.1132 16.8833 8.0238 16.2514 8.025 15.6165C8.025 11.2125 12.2025 8.0865 16.761 8.0865C16.836 8.0865 16.911 8.0865 16.986 8.0895C15.8805 5.1435 12.588 3 8.694 3C3.894 3 0 6.24 0 10.239ZM6.948 7.9065C6.948 8.21282 6.82631 8.5066 6.60971 8.72321C6.3931 8.93981 6.09933 9.0615 5.793 9.0615C5.48667 9.0615 5.1929 8.93981 4.97629 8.72321C4.75969 8.5066 4.638 8.21282 4.638 7.9065C4.638 7.60017 4.75969 7.3064 4.97629 7.08979C5.1929 6.87319 5.48667 6.7515 5.793 6.7515C6.09933 6.7515 6.3931 6.87319 6.60971 7.08979C6.82631 7.3064 6.948 7.60017 6.948 7.9065ZM12.7605 7.9065C12.7605 8.21282 12.6388 8.5066 12.4222 8.72321C12.2056 8.93981 11.9118 9.0615 11.6055 9.0615C11.2992 9.0615 11.0054 8.93981 10.7888 8.72321C10.5722 8.5066 10.4505 8.21282 10.4505 7.9065C10.4505 7.60017 10.5722 7.3064 10.7888 7.08979C11.0054 6.87319 11.2992 6.7515 11.6055 6.7515C11.9118 6.7515 12.2056 6.87319 12.4222 7.08979C12.6388 7.3064 12.7605 7.60017 12.7605 7.9065Z" fill="white"/>
</svg>