<svg viewBox="0 0 24 24" fill="none" xmlns="http://www.w3.org/2000/svg">
<path d="M4.27798 8.59211C7.05098 5.82211 10.282 4.55911 11.497 5.77611C12.034 6.31311 12.085 7.24011 11.741 8.34811C11.563 8.90511 12.265 8.59811 12.265 8.59811C14.506 7.66011 16.462 7.60411 17.175 8.62511C17.555 9.16711 17.518 9.93111 17.167 10.8151C17.004 11.2221 17.215 11.2851 17.527 11.3781C18.789 11.7701 20.195 12.7141 20.195 14.3821C20.195 17.1451 16.215 20.6211 10.231 20.6211C5.66598 20.6211 1.00098 18.4081 1.00098 14.7691C1.00098 12.8671 2.20498 10.6671 4.27798 8.59211ZM16.411 14.3341C16.174 11.9431 13.029 10.2951 9.38798 10.6571C5.74798 11.0161 2.98498 13.2471 3.22098 15.6371C3.45798 18.0311 6.60298 19.6761 10.244 19.3171C13.885 18.9551 16.645 16.7251 16.411 14.3341ZM6.16198 14.4381C6.91598 12.9101 8.87398 12.0481 10.608 12.4981C12.4 12.9611 13.315 14.6521 12.584 16.2971C11.84 17.9801 9.70098 18.8771 7.88898 18.2911C6.13698 17.7251 5.39598 15.9961 6.16198 14.4381ZM8.87698 15.0161C8.31398 14.7791 7.58598 15.0241 7.23698 15.5691C6.88298 16.1161 7.04798 16.7701 7.60798 17.0251C8.17598 17.2821 8.93298 17.0381 9.28398 16.4751C9.62998 15.9071 9.44798 15.2581 8.87698 15.0161ZM10.264 14.4381C10.048 14.3541 9.77798 14.4561 9.65098 14.6701C9.52798 14.8841 9.59698 15.1281 9.81398 15.2171C10.033 15.3091 10.315 15.2051 10.442 14.9861C10.565 14.7661 10.486 14.5201 10.264 14.4381ZM15.958 2.92411C16.9581 2.71127 17.9966 2.76516 18.9693 3.08039C19.9421 3.39563 20.8148 3.96111 21.5 4.72011C22.1858 5.48031 22.6596 6.40756 22.8737 7.40876C23.0879 8.40996 23.0348 9.44988 22.72 10.4241C22.6862 10.5294 22.6319 10.627 22.5602 10.7112C22.4886 10.7954 22.401 10.8646 22.3024 10.9148C22.2039 10.965 22.0964 10.9952 21.9861 11.0037C21.8759 11.0121 21.765 10.9987 21.66 10.9641C21.4474 10.8949 21.271 10.7443 21.1694 10.5452C21.0678 10.3461 21.0493 10.1148 21.118 9.90211C21.3422 9.21017 21.3803 8.47137 21.2284 7.76004C21.0764 7.04872 20.7399 6.38994 20.2525 5.84998C19.7652 5.31002 19.1442 4.90792 18.4521 4.68412C17.76 4.46032 17.0212 4.42273 16.31 4.57511C16.0967 4.60836 15.8787 4.5587 15.7008 4.43631C15.523 4.31392 15.3987 4.12809 15.3535 3.91697C15.3084 3.70585 15.3457 3.48544 15.4579 3.301C15.5702 3.11655 15.7487 2.98205 15.957 2.92511L15.958 2.92411ZM16.584 5.85011C17.0709 5.74614 17.5766 5.77219 18.0502 5.92564C18.5239 6.07908 18.9488 6.35451 19.2822 6.72424C19.6157 7.09397 19.8459 7.54496 19.9498 8.03188C20.0536 8.5188 20.0275 9.02449 19.874 9.49811C19.8461 9.59062 19.8 9.67662 19.7385 9.75107C19.6769 9.82552 19.601 9.88691 19.5154 9.93163C19.4298 9.97636 19.336 10.0035 19.2398 10.0115C19.1435 10.0195 19.0466 10.0082 18.9547 9.97817C18.8629 9.94818 18.778 9.90013 18.705 9.83686C18.632 9.77358 18.5723 9.69635 18.5296 9.6097C18.4868 9.52306 18.4619 9.42874 18.4561 9.3323C18.4503 9.23586 18.4639 9.13924 18.496 9.04811C18.5722 8.81672 18.5858 8.56928 18.5353 8.33093C18.4849 8.09259 18.3723 7.87184 18.209 7.69111C18.045 7.51082 17.8367 7.37662 17.6048 7.30188C17.3728 7.22714 17.1253 7.21446 16.887 7.26511C16.7941 7.28501 16.6981 7.28641 16.6047 7.26923C16.5112 7.25206 16.4221 7.21664 16.3423 7.16501C16.1812 7.06074 16.0682 6.89675 16.028 6.70911C15.9878 6.52147 16.0238 6.32555 16.1281 6.16446C16.2323 6.00336 16.3963 5.89029 16.584 5.85011Z" fill="white"/>
</svg>
