<svg xmlns="http://www.w3.org/2000/svg" viewBox="0 0 16.5 16.5">
  <path d="M16.5,8.038A8.115,8.115,0,0,1,4.485,15.076L0,16.5l1.462-4.313A7.956,7.956,0,0,1,.3,8.037a8.1,8.1,0,0,1,16.2,0ZM8.4,1.282A6.791,6.791,0,0,0,1.589,8.039,6.685,6.685,0,0,0,2.887,12l-.85,2.509,2.616-.831a6.818,6.818,0,0,0,10.557-5.64A6.791,6.791,0,0,0,8.4,1.282ZM12.49,9.889c-.051-.081-.183-.131-.381-.23s-1.175-.575-1.356-.64-.315-.1-.448.1-.512.641-.628.773-.231.148-.43.051a5.474,5.474,0,0,1-1.6-.978A5.927,5.927,0,0,1,6.545,7.6c-.117-.2-.012-.3.087-.4s.2-.23.3-.346a1.313,1.313,0,0,0,.2-.328.367.367,0,0,0-.017-.346c-.049-.1-.446-1.067-.612-1.462s-.33-.329-.447-.329-.248-.016-.38-.016a.727.727,0,0,0-.529.245,2.2,2.2,0,0,0-.695,1.643A3.809,3.809,0,0,0,5.259,8.3a8.132,8.132,0,0,0,3.392,2.974c2.019.788,2.019.525,2.383.492a2,2,0,0,0,1.34-.936A1.637,1.637,0,0,0,12.49,9.889Z"/>
</svg>