<svg viewBox="0 0 268 131" fill="none" xmlns="http://www.w3.org/2000/svg">
<path d="M34.5792 126.05H50.281V97.5871H0C4.35181 88.1583 8.46838 79.4957 12.3497 71.5992C16.3487 63.7027 19.936 56.8079 23.1116 50.915C26.4049 44.9042 29.1689 39.9541 31.4036 36.0648C33.7559 32.1754 35.4025 29.5236 36.3435 28.1093C40.5777 21.3914 43.9885 16.2056 46.5761 12.552C49.2813 8.78049 51.5748 5.95187 53.4567 4.06613C55.3385 2.18039 56.9263 1.06073 58.2201 0.707155C59.6315 0.235719 61.2193 0 62.9836 0C66.0416 0 67.9823 0.471437 68.8056 1.41431C69.7465 2.23932 70.217 3.1822 70.217 4.24292C70.217 4.83222 69.8641 5.53937 69.1584 6.36437C68.5704 7.18939 66.9825 8.83941 64.395 11.3144C61.6898 13.9073 59.161 16.3824 56.8087 18.7395C54.574 21.0967 52.4569 23.4539 50.4574 25.8111C48.458 28.0504 46.4585 30.3486 44.459 32.7058C42.5771 34.9451 40.6365 37.2434 38.637 39.6005C31.58 47.9685 25.2287 57.0436 19.5831 66.8259C14.0552 76.4903 8.82123 85.7422 3.88134 94.5816H50.281V47.3792H65.4535V94.5816H81.1553V97.5871H65.4535V126.05H81.1553V128.525H34.5792V126.05Z" fill="#332306"/>
<path d="M110.183 65.4116C110.183 76.3725 110.477 85.8601 111.065 93.8745C111.771 101.771 112.947 108.312 114.593 113.498C116.358 118.566 118.769 122.337 121.827 124.812C124.885 127.287 128.884 128.525 133.824 128.525C138.763 128.525 142.762 127.287 145.82 124.812C148.878 122.337 151.231 118.566 152.877 113.498C154.642 108.312 155.818 101.771 156.406 93.8745C157.112 85.8601 157.464 76.3725 157.464 65.4116C157.464 54.4507 157.112 45.0221 156.406 37.1255C155.818 29.229 154.642 22.7467 152.877 17.6788C151.231 12.493 148.878 8.66263 145.82 6.18759C142.762 3.71255 138.763 2.47503 133.824 2.47503C128.884 2.47503 124.885 3.71255 121.827 6.18759C118.769 8.66263 116.358 12.493 114.593 17.6788C112.947 22.7467 111.771 29.229 111.065 37.1255C110.477 45.0221 110.183 54.4507 110.183 65.4116ZM92.5402 65.4116C92.5402 58.3401 93.0695 50.9739 94.128 43.3131C95.3042 35.5344 97.4213 28.4629 100.479 22.0985C103.537 15.6163 107.713 10.3126 113.005 6.18759C118.416 2.06253 125.355 0 133.824 0C142.292 0 149.173 2.06253 154.465 6.18759C159.876 10.3126 164.11 15.6163 167.168 22.0985C170.226 28.4629 172.284 35.5344 173.343 43.3131C174.519 50.9739 175.107 58.3401 175.107 65.4116C175.107 72.601 174.519 80.085 173.343 87.8637C172.284 95.5245 170.226 102.596 167.168 109.078C164.11 115.443 159.876 120.687 154.465 124.812C149.173 128.937 142.292 131 133.824 131C125.355 131 118.416 128.937 113.005 124.812C107.713 120.687 103.537 115.443 100.479 109.078C97.4213 102.596 95.3042 95.5245 94.128 87.8637C93.0695 80.085 92.5402 72.601 92.5402 65.4116Z" fill="#332306"/>
<path d="M221.424 126.05H237.126V97.5871H186.845C191.196 88.1583 195.313 79.4957 199.194 71.5992C203.193 63.7027 206.781 56.8079 209.956 50.915C213.25 44.9042 216.014 39.9541 218.248 36.0648C220.601 32.1754 222.247 29.5236 223.188 28.1093C227.422 21.3914 230.833 16.2056 233.421 12.552C236.126 8.78049 238.419 5.95187 240.301 4.06613C242.183 2.18039 243.771 1.06073 245.065 0.707155C246.476 0.235719 248.064 0 249.828 0C252.886 0 254.827 0.471437 255.65 1.41431C256.591 2.23932 257.062 3.1822 257.062 4.24292C257.062 4.83222 256.709 5.53937 256.003 6.36437C255.415 7.18939 253.827 8.83941 251.24 11.3144C248.534 13.9073 246.006 16.3824 243.653 18.7395C241.419 21.0967 239.302 23.4539 237.302 25.8111C235.303 28.0504 233.303 30.3486 231.304 32.7058C229.422 34.9451 227.481 37.2434 225.482 39.6005C218.425 47.9685 212.073 57.0436 206.428 66.8259C200.9 76.4903 195.666 85.7422 190.726 94.5816H237.126V47.3792H252.298V94.5816H268V97.5871H252.298V126.05H268V128.525H221.424V126.05Z" fill="#332306"/>
</svg>
